<?xml version="1.0" encoding="UTF-8"?>
<svg width="22px" height="22px" viewBox="0 0 22 22" version="1.1" xmlns="http://www.w3.org/2000/svg" xmlns:xlink="http://www.w3.org/1999/xlink">
    <title>Phone Call / 22x22</title>
    <g id="Icons" stroke="none" stroke-width="1" fill="none" fill-rule="evenodd">
        <g transform="translate(-514, -256)" id="22x22-Icon">
            <g transform="translate(400, 170)">
                <g id="Phone-Call-/-22x22" transform="translate(114, 86)">
                    <polygon id="Background" points="0 0 22 0 22 22 0 22"></polygon>
                    <g id="Vector" transform="translate(1.69, 1.69)" fill="#303030">
                        <path d="M4.25183,0.15069 L4.43836999,0.156609067 C4.88749508,0.188432661 5.31877986,0.345971166 5.6826752,0.611119451 L5.83436,0.73129 C6.27618,1.11125 6.56476,1.63891 6.64631,2.2159 L6.58985349,2.22990208 C6.62637897,2.22508476 6.64719,2.22234 6.64719,2.22234 C6.727838,2.833836 6.8636284,3.436468 7.05272312,4.02289904 L7.20392,4.45799 C7.36546,4.88775 7.40042,5.3548 7.30466,5.80382 L7.2559391,5.99385429 C7.14328918,6.36884082 6.94031286,6.71162571 6.66361,6.99144 L6.60846735,6.93691111 C6.53383819,6.86311261 6.39257586,6.72342259 6.24179451,6.5743195 L6.15,6.484 L6.66085,6.99422 L5.96571114,7.68938375 C7.00611895,9.35581822 8.41324435,10.7629668 10.0796452,11.8033874 L10.7778,11.1056 C11.1042,10.7828 11.5164,10.5603 11.9654,10.4646 C12.4144,10.3688 12.8815,10.4038 13.3112,10.5653 C14.032,10.8343 14.7825,11.0212 15.5469,11.122 L15.4935181,11.5266647 L15.488,11.562 L15.479,11.632 L15.474,11.672 L15.465,11.741 L15.4812547,11.6323583 C15.4964636,11.5245115 15.5107708,11.4230587 15.5225531,11.3395094 L15.5531,11.1229 C16.1364,11.2052 16.6691,11.499 17.0498,11.9484 C17.4306,12.3978 17.6329,12.9714 17.6183,13.5603 L17.6185,16.0921 C17.6199,16.4265 17.5514,16.7575 17.4174,17.0639 L17.3296496,17.243832 C17.202904,17.478344 17.03772,17.69052 16.8406,17.8714 L16.6875688,18.000492 C16.476804,18.16374 16.23994,18.29102 15.9865,18.3767 C15.6697,18.4838 15.3341,18.5236 15.001,18.4935 L14.9884,18.4924 L14.5084112,18.4334312 C11.9548767,18.0844488 9.50749176,17.1765235 7.34176,15.7721 L6.94940043,15.5150745 C4.97981836,14.186102 3.30383438,12.4643188 2.0277,10.4561 L2.028,10.456 L1.77264859,10.0500036 C0.426142907,7.83968851 -0.415448235,5.35679412 -0.68918,2.7791 L-0.69034,2.76819 C-0.72026,2.43615 -0.6808,2.10151 -0.57439,1.78557 C-0.46797,1.46963 -0.29694,1.1793 -0.07218,0.93308 L0.06839384,0.79138712 C0.2632636,0.6106492 0.487142,0.46319 0.73111,0.35543 L0.91687832,0.282442 C1.1680764,0.1956148 1.432406,0.150938 1.69911,0.15069 L4.25183,0.15069 Z M3.20601,9.70004 C4.37690133,11.542654 5.90869422,13.1191218 7.70834565,14.3381791 L8.09805,14.5939 C10.2209,15.9705 12.6308,16.8278 15.1397,17.1005 C15.2692805,17.1112973 15.4074954,17.0946601 15.538,17.0505 C15.6701,17.0058 15.7914,16.934 15.8941,16.8398 L15.9897444,16.7389741 C16.0486111,16.6675889 16.0974333,16.5882333 16.1347,16.5031 L16.1814037,16.3722222 C16.2063667,16.2831333 16.2189,16.1908 16.2185,16.0978 L16.2188,13.5256 L16.2143829,13.4035435 C16.1947,13.2017056 16.1140333,13.0095667 15.9817,12.8534 L15.8972204,12.7652162 C15.7482806,12.6276167 15.5602667,12.5377833 15.3576,12.5092 L14.9306838,12.4445528 C14.2112556,12.3219278 13.5046167,12.1317333 12.8202,11.8764 L12.7094032,11.8417104 C12.561816,11.804744 12.40724,11.8018 12.2574,11.8338 C12.0702,11.8737 11.8983,11.9665 11.7622,12.1011 L10.6846,13.1787 C10.4618,13.4015 10.1175,13.448 9.84361,13.2922 L9.47400002,13.0746549 C7.4001337,11.8118001 5.67953222,10.0404956 4.47699,7.92562 L4.43252748,7.83196927 C4.33374383,7.57669333 4.39246778,7.28270222 4.59053,7.08464 L5.6709,6.00427 C5.80275,5.87091 5.89552,5.69905 5.93546,5.51181 L5.95289056,5.3987472 C5.9674464,5.2472848 5.947336,5.09396 5.89344,4.9506 C5.89344,4.9506 5.92268559,4.93960657 5.97243891,4.92090428 L6.028,4.899 L5.978,4.918 L6.09670017,4.87419441 L6.043,4.893 L6.27525816,4.80632321 C6.06015357,4.88659015 5.89285,4.94902 5.89285,4.94902 C5.5864,4.12775 5.37383,3.27445 5.25921,2.4054 L5.23599472,2.29343333 C5.18419194,2.09959444 5.075035,1.92478333 4.92151,1.79275 C4.73727,1.63431 4.5017,1.54826 4.25872,1.55065 L1.70043,1.55069 C1.56141,1.55082 1.42394,1.57989 1.29677,1.63606 L1.17423481,1.70065926 C1.09581333,1.74921556 1.02428667,1.80849333 0.9618,1.87694 L0.875708148,1.98546185 C0.823517778,2.06151444 0.78196,2.14459667 0.75238,2.23243 C0.708,2.36418 0.69155,2.50373 0.70406,2.64218 C0.973114426,5.15846894 1.83012127,7.57615468 3.20601,9.70004 C3.20601,9.70004 2.99019551,9.8398449 2.74355038,9.99962192 L2.618,10.08 L3.20601,9.70004 Z M11.1403,2.7157 C12.108,2.90449 12.9973,3.37773 13.6944,4.07486 C14.3915,4.77198 14.8647,5.66127 15.0535,6.62891 C15.1276,7.00835 14.88,7.37597 14.5005,7.45 C14.1211,7.52403 13.7535,7.27645 13.6794,6.897 L13.6267671,6.66781016 C13.4665728,6.06278531 13.1489333,5.50933444 12.7044,5.06481 L12.5327081,4.90411812 C12.0618494,4.49178704 11.4892667,4.21017222 10.8722,4.08979 L10.7802057,4.0653291 C10.4537667,3.95440792 10.2513667,3.61652 10.3192,3.2687 C10.3933,2.88925 10.7609,2.64167 11.1403,2.7157 Z M10.9884744,-0.699857407 L11.0836,-0.69572 C12.9677,-0.48641 14.7246,0.35732 16.0659,1.69694 C17.4072,3.03656 18.2532,4.79244 18.4649,6.67628 C18.508,7.06046 18.2316,7.4069 17.8474,7.45007 C17.4632,7.49324 17.1168,7.21679 17.0736,6.83261 L17.0344032,6.53987562 C16.8077641,5.08303109 16.1234125,3.73299125 15.0766,2.68751 L14.8632415,2.48327952 C13.7767617,1.48659676 12.399375,0.85907 10.929,0.69572 L10.8353083,0.678880365 C10.5008694,0.595085 10.2714583,0.27493 10.3106,-0.07729 C10.3461,-0.397481667 10.5923639,-0.643131667 10.8958616,-0.691415926 L10.9884744,-0.699857407 Z" id="Vector-border"></path>
                    </g>
                </g>
            </g>
        </g>
    </g>
</svg>